<svg width="1em" height="1em" viewBox="0 0 434 400" fill="none" xmlns="http://www.w3.org/2000/svg" style="flex:none;line-height:1"><title>Antigravity</title><path d="M392.709 390.137c24.168 18.13 60.419 6.044 27.188-27.195C320.208 266.248 341.354.339 217.497.339S114.786 266.248 15.096 362.942c-36.251 36.26 3.021 45.325 27.188 27.195 93.648-63.455 87.606-175.258 175.213-175.258s81.564 111.803 175.212 175.258Z" fill="url(#ag-a)"/><path d="M42.284 390.137c93.648-63.455 87.606-175.258 175.213-175.258 38.011 0 58.388 21.053 78.986 48.182C271.431 170.572 284.745.339 217.497.339 93.641.339 114.786 266.248 15.096 362.942c-36.251 36.26 3.021 45.325 27.188 27.195Z" fill="url(#ag-b)"/><path d="M392.709 390.137c24.168 18.13 60.419 6.044 27.188-27.195C320.208 266.248 341.354.339 217.497.339c-23.996 0-42.392 9.981-56.454 27.112 55.31 58.325 54.308 199.922 41.744 279.096 23.6-10.434 48.503-8.872 89.829 21.265 25.422 18.538 57.351 38.78 100.093 62.325Z" fill="url(#ag-c)" fill-opacity=".86"/><defs><linearGradient id="ag-a" x1="29" y1="372" x2="397" y2="32" gradientUnits="userSpaceOnUse"><stop stop-color="#34A853"/><stop offset=".32" stop-color="#4285F4"/><stop offset=".7" stop-color="#A142F4"/><stop offset="1" stop-color="#EA4335"/></linearGradient><linearGradient id="ag-b" x1="37" y1="366" x2="183" y2="26" gradientUnits="userSpaceOnUse"><stop stop-color="#FBBC04"/><stop offset=".48" stop-color="#34A853"/><stop offset="1" stop-color="#4285F4"/></linearGradient><linearGradient id="ag-c" x1="194" y1="20" x2="408" y2="392" gradientUnits="userSpaceOnUse"><stop stop-color="#EA4335"/><stop offset=".45" stop-color="#A142F4"/><stop offset="1" stop-color="#4285F4"/></linearGradient></defs></svg>
